<svg xmlns="http://www.w3.org/2000/svg" version="1.1" xmlns:xlink="http://www.w3.org/1999/xlink" width="2000" height="298" viewBox="0 0 2000 298"><svg xml:space="preserve" width="2000" height="298" data-version="2" data-id="lg_EwAOUDHNLDj6ufwytt" viewBox="0 0 298 298" x="0" y="0"><rect width="100%" height="100%" fill="transparent"></rect><path fill="#fefbfa" d="M183.996 195.526h-13.05l-4.14-13.59h-20.82l-4.14 13.59h-13.05l20.16-57.34h14.8zm-34.96-23.75h14.88l-4.14-13.28q-.39-1.33-1.04-3.42-.64-2.09-1.29-4.26-.64-2.16-1.03-3.77-.39 1.61-1.08 3.97-.68 2.36-1.3 4.47l-.9 3.01z"></path><path fill="#d90c00" d="M149 294.768C68.534 294.672 3.328 229.466 3.232 149 3.328 68.534 68.534 3.328 149 3.232 229.466 3.328 294.672 68.534 294.768 149c-.096 80.466-65.302 145.672-145.768 145.768"></path><path fill="#fff" d="M136.466 196.116h-24.46l-7.77-25.48h-39.03l-7.77 25.48h-24.46l37.79-107.51h27.76zm-65.55-44.53h27.9l-7.76-24.9q-.73-2.49-1.94-6.41t-2.42-7.98q-1.21-4.07-1.94-7.07-.73 3-2.01 7.44-1.28 4.43-2.46 8.38-1.17 3.96-1.68 5.64zm158.85-62.55h22.63v69.29q0 11.06-4.87 19.96t-14.72 14.1q-9.85 5.2-24.79 5.2-21.24 0-32.37-10.84-11.14-10.84-11.14-28.71v-69h22.64v65.56q0 13.25 5.42 18.6 5.42 5.35 16.04 5.35 7.47 0 12.12-2.57 4.65-2.56 6.85-7.91 2.19-5.34 2.19-13.62z"></path></svg></svg>